<?xml version="1.0" standalone="no"?><!DOCTYPE svg PUBLIC "-//W3C//DTD SVG 1.1//EN" "http://www.w3.org/Graphics/SVG/1.1/DTD/svg11.dtd"><svg t="1647585831726" class="icon" viewBox="0 0 1024 1024" version="1.1" xmlns="http://www.w3.org/2000/svg" p-id="14166" width="16" height="16" xmlns:xlink="http://www.w3.org/1999/xlink"><defs><style type="text/css"></style></defs><path d="M736 768m-256 0a256 256 0 1 0 512 0 256 256 0 1 0-512 0Z" fill="#D4F3FF" p-id="14167"></path><path d="M736 576c105.856 0 192 86.144 192 192s-86.144 192-192 192-192-86.144-192-192 86.144-192 192-192m0-64c-141.44 0-256 114.56-256 256s114.56 256 256 256 256-114.56 256-256-114.56-256-256-256z" fill="#0086EE" p-id="14168"></path><path d="M864 736H768V640a32 32 0 0 0-64 0v128a32 32 0 0 0 32 32h128a32 32 0 0 0 0-64zM224 200a32 32 0 0 0 0 64h448a32 32 0 0 0 0-64h-448zM672 366.016h-448a32 32 0 0 0 0 64h448a32 32 0 0 0 0-64zM480 531.968h-256a32 32 0 0 0 0 64h256a32 32 0 0 0 0-64zM416 761.984a32 32 0 0 0 0-64h-192a32 32 0 0 0 0 64h192z" fill="#0086EE" p-id="14169"></path><path d="M448 960H128a32.064 32.064 0 0 1-32-32v-832c0-17.6 14.4-32 32-32h640c17.6 0 32 14.4 32 32v320a32 32 0 0 0 64 0v-320A96 96 0 0 0 768 0H128A96 96 0 0 0 32 96v832A96 96 0 0 0 128 1024h320a32 32 0 0 0 0-64z" fill="#0086EE" p-id="14170"></path></svg>