<?xml version="1.0" standalone="no"?><!DOCTYPE svg PUBLIC "-//W3C//DTD SVG 1.1//EN" "http://www.w3.org/Graphics/SVG/1.1/DTD/svg11.dtd"><svg t="1647586038097" class="icon" viewBox="0 0 1286 1024" version="1.1" xmlns="http://www.w3.org/2000/svg" p-id="26226" xmlns:xlink="http://www.w3.org/1999/xlink" width="20.09375" height="16"><defs><style type="text/css"></style></defs><path d="M1180.136776 0H106.115841A106.258758 106.258758 0 0 0 0 106.115841v811.768318a106.258758 106.258758 0 0 0 106.115841 106.115841h1074.020935A106.258758 106.258758 0 0 0 1286.252617 917.884159V106.115841A106.258758 106.258758 0 0 0 1180.136776 0z m-57.166783 87.393719L643.126308 474.555757 163.068248 87.393719z m-1036.147941 774.895744V138.700907l400.524773 322.992324z m49.30635 74.316818l420.247313-419.675646 59.310538 47.591347a43.66113 43.66113 0 0 0 54.880111 0l59.310538-47.805722 419.675645 419.675645z m1062.087369-74.316818l-399.953105-400.524774 400.524773-322.992323z" fill="#467CFD" p-id="26227"></path></svg>